<?xml version="1.0" encoding="utf-8"?>
<!-- Generator: Adobe Illustrator 28.1.0, SVG Export Plug-In . SVG Version: 6.00 Build 0)  -->
<svg version="1.1" id="Calque_1" xmlns="http://www.w3.org/2000/svg" xmlns:xlink="http://www.w3.org/1999/xlink" x="0px" y="0px"
	 viewBox="0 0 64 64" style="enable-background:new 0 0 64 64;" xml:space="preserve">
<style type="text/css">
	.st0{clip-path:url(#SVGID_00000095312787829629083660000008412573083829806524_);}
	
	.fill {
		fill:black;
	}
</style>
<g>
	<defs>
		<rect id="SVGID_1_" x="2" y="2" width="60" height="60"/>
	</defs>
	<clipPath id="SVGID_00000137111457735162541850000000974998309805570706_">
		<use xlink:href="#SVGID_1_"  style="overflow:visible;"/>
	</clipPath>
	<path style="clip-path:url(#SVGID_00000137111457735162541850000000974998309805570706_);" class="fill" d="M31.5,39
		c4.1,0,7.5-3.3,7.5-7.4c0-4.1-3.4-7.4-7.5-7.4S24,27.4,24,31.5C24,35.7,27.4,39,31.5,39"/>
	<path style="clip-path:url(#SVGID_00000137111457735162541850000000974998309805570706_);"  class="fill" d="M32.8,19.3
		c0-0.6,0.1-1.2,0.1-1.8c0-5.1-1.2-9.9-3.3-14.2c-3.9-0.4-8.8,0-11.6,0.8c5.2,4.8,8.3,10.6,10.1,15.7c1.1-0.3,2.3-0.6,3.5-0.6
		C31.9,19.2,32.3,19.3,32.8,19.3"/>
	<path style="clip-path:url(#SVGID_00000137111457735162541850000000974998309805570706_);"  class="fill" d="M24.6,21.6
		c-0.4-0.5-0.7-1-1.1-1.5c-3.3-3.9-7.3-6.8-11.7-8.8c-3.3,2.2-6.8,5.7-8.4,8c7.1,0.4,13.2,2.9,17.9,5.6c0.6-1,1.4-1.9,2.3-2.7
		C23.9,22,24.3,21.8,24.6,21.6"/>
	<path style="clip-path:url(#SVGID_00000137111457735162541850000000974998309805570706_);"  class="fill" d="M19.8,28.6
		c-0.6-0.1-1.2-0.3-1.8-0.4c-5-0.9-10-0.5-14.6,0.8c-1.1,3.7-1.5,8.6-1.3,11.5c5.6-4.2,12-6.2,17.3-7.2c-0.1-1.2-0.2-2.3,0.1-3.5
		C19.5,29.3,19.6,29,19.8,28.6"/>
	<path style="clip-path:url(#SVGID_00000137111457735162541850000000974998309805570706_);"  class="fill" d="M20.5,36.8
		c-0.5,0.3-1.1,0.5-1.6,0.8c-4.4,2.5-8,6-10.7,9.9c1.6,3.6,4.4,7.6,6.5,9.6c1.6-6.8,5.1-12.4,8.6-16.5c-0.8-0.8-1.6-1.7-2.2-2.7
		C20.8,37.6,20.7,37.2,20.5,36.8"/>
	<path style="clip-path:url(#SVGID_00000137111457735162541850000000974998309805570706_);"  class="fill" d="M26.6,42.6
		c-0.2,0.6-0.5,1.1-0.7,1.7c-1.8,4.8-2.3,9.7-1.8,14.5c3.5,1.7,8.3,3,11.2,3.2c-3.2-6.2-4.1-12.8-4.1-18.2c-1.2-0.1-2.3-0.3-3.5-0.7
		C27.4,43,27,42.8,26.6,42.6"/>
	<path style="clip-path:url(#SVGID_00000137111457735162541850000000974998309805570706_);"  class="fill" d="M34.7,43
		c0.2,0.6,0.3,1.2,0.5,1.7c1.8,4.8,4.5,8.9,8,12.2c3.8-0.9,8.3-3,10.7-4.7C47.4,49.6,42.5,45.1,39,41c-0.9,0.7-2,1.3-3.1,1.7
		C35.5,42.9,35.1,42.9,34.7,43"/>
	<path style="clip-path:url(#SVGID_00000137111457735162541850000000974998309805570706_);"  class="fill" d="M41.3,38.3
		c0.5,0.3,1,0.7,1.5,1c4.4,2.5,9.2,3.9,14,4.2c2.3-3.1,4.4-7.6,5.2-10.4C55.2,35.2,48.6,35,43.3,34c-0.3,1.1-0.7,2.2-1.3,3.3
		C41.8,37.7,41.5,38,41.3,38.3"/>
	<path style="clip-path:url(#SVGID_00000137111457735162541850000000974998309805570706_);"  class="fill" d="M43.5,30.5
		c0.6-0.1,1.2-0.1,1.8-0.2c5-0.9,9.6-2.9,13.5-5.7c-0.3-3.9-1.5-8.6-2.8-11.3c-3.8,5.9-9.1,9.9-13.8,12.6c0.5,1,0.9,2.1,1.2,3.3
		C43.5,29.7,43.5,30.1,43.5,30.5"/>
	<path style="clip-path:url(#SVGID_00000137111457735162541850000000974998309805570706_);"  class="fill" d="M40.2,23.2
		c0.4-0.4,0.8-0.9,1.2-1.3c3.3-3.9,5.5-8.4,6.6-13C45.4,6,41.3,3.2,38.7,2c0.9,7-0.5,13.4-2.4,18.5c1.1,0.5,2.1,1,3,1.8
		C39.7,22.5,39.9,22.9,40.2,23.2"/>
</g>
</svg>
