<?xml version="1.0" encoding="utf-8"?>
<!-- Generator: Adobe Illustrator 28.1.0, SVG Export Plug-In . SVG Version: 6.00 Build 0)  -->
<svg version="1.1" id="Calque_1" xmlns="http://www.w3.org/2000/svg" xmlns:xlink="http://www.w3.org/1999/xlink" x="0px" y="0px"
	 viewBox="0 0 64 64" style="enable-background:new 0 0 64 64;" xml:space="preserve">
<style type="text/css">
	.st0{clip-path:url(#SVGID_00000056404490922443727210000006486003190105018254_);fill:#007553;}
</style>
<g>
	<defs>
		<rect id="SVGID_1_" y="0" width="64" height="64"/>
	</defs>
	<clipPath id="SVGID_00000150060406828978227440000013381422253517303175_">
		<use xlink:href="#SVGID_1_"  style="overflow:visible;"/>
	</clipPath>
	<path style="clip-path:url(#SVGID_00000150060406828978227440000013381422253517303175_);fill:#007553;" d="M57.6,49.62H47.4
		l-7.89-15.39h7.89c0,0,6.6,12.9,6.65,13C54.96,49.04,57.6,49.62,57.6,49.62 M37.52,16.18c0.01,0.08,6.83,12.66,6.83,12.66h-7.8
		l-4.52-8.3l-4.7,8.3h-7.8c0,0,6.82-12.57,6.83-12.66c0.09-0.73-0.18-1.66-0.89-1.8h12.94C37.7,14.52,37.43,15.45,37.52,16.18
		 M16.6,34.22h7.8l-7.71,15.39H6.4c0,0,2.64-0.58,3.55-2.4C9.99,47.13,16.6,34.22,16.6,34.22 M64,0H0v64h64V0z"/>
</g>
</svg>
