<?xml version="1.0" encoding="utf-8"?>
<!-- Generator: Adobe Illustrator 28.1.0, SVG Export Plug-In . SVG Version: 6.00 Build 0)  -->
<svg version="1.1" id="Calque_1" xmlns="http://www.w3.org/2000/svg" xmlns:xlink="http://www.w3.org/1999/xlink" x="0px" y="0px"
	 viewBox="0 0 64 64" style="enable-background:new 0 0 64 64;" xml:space="preserve">
<style type="text/css">
	.st0{clip-path:url(#SVGID_00000181058894793636283490000011485923679236512147_);}
	
	.fill {
		fill:white;
	}
</style>
<g>
	<defs>
		<rect id="SVGID_1_" width="64" height="64"/>
	</defs>
	<clipPath id="SVGID_00000011021648822790707920000010951918318421437568_">
		<use xlink:href="#SVGID_1_"  style="overflow:visible;"/>
	</clipPath>
	<path class="fill" style="clip-path:url(#SVGID_00000011021648822790707920000010951918318421437568_);" d="M46.51,34.1h-7.43
		l7.43,14.5h9.6c0,0-2.48-0.55-3.34-2.26C52.73,46.25,46.51,34.1,46.51,34.1 M20.25,29.02h7.35l4.43-7.82l4.26,7.82h7.35
		c0,0-6.42-11.84-6.43-11.92c-0.08-0.68,0.17-1.56,0.83-1.69H25.84c0.67,0.13,0.92,1.01,0.84,1.69
		C26.67,17.17,20.25,29.02,20.25,29.02 M7.88,48.6h9.69l7.27-14.5h-7.35c0,0-6.22,12.16-6.26,12.25C10.37,48.05,7.88,48.6,7.88,48.6
		 M60.29,60.29H3.71V3.71h56.58V60.29z M64,0H0v64h64V0z"/>
</g>
</svg>
